inDegrees=no
num_controls=7
num_derivatives=13
num_iterations=179
num_multipliers=7
num_parameters=0
num_slacks=7
num_states=26
objective=0.479301
objective_accelerations=0.000000
objective_balance=0.003593
objective_effort=0.060624
objective_height=0.352265
objective_ligament=0.062819
solver_duration=2239.995917
status=Solve_Succeeded
success=true
DataType=double
version=3
OpenSimVersion=4.5
endheader
time	/jointset/ground_pelvis/pelvis_tilt/value	/jointset/ground_pelvis/pelvis_tx/value	/jointset/ground_pelvis/pelvis_ty/value	/jointset/hip_l/hip_flexion_l/value	/jointset/hip_l/hip_adduction_l/value	/jointset/hip_l/hip_rotation_l/value	/jointset/back/lumbar_extension/value	/jointset/patellofemoral_l/patellar_flexion_l/value	/jointset/knee_l/knee_flexion_l/value	/jointset/knee_l/knee_adduction_l/value	/jointset/knee_l/knee_rotation_l/value	/jointset/ankle_l/ankle_angle_l/value	/jointset/subtalar_l/subtalar_angle_l/value	/jointset/ground_pelvis/pelvis_tilt/speed	/jointset/ground_pelvis/pelvis_tx/speed	/jointset/ground_pelvis/pelvis_ty/speed	/jointset/hip_l/hip_flexion_l/speed	/jointset/hip_l/hip_adduction_l/speed	/jointset/hip_l/hip_rotation_l/speed	/jointset/back/lumbar_extension/speed	/jointset/patellofemoral_l/patellar_flexion_l/speed	/jointset/knee_l/knee_flexion_l/speed	/jointset/knee_l/knee_adduction_l/speed	/jointset/knee_l/knee_rotation_l/speed	/jointset/ankle_l/ankle_angle_l/speed	/jointset/subtalar_l/subtalar_angle_l/speed	/forceset/tau_hip_flexion_l	/forceset/tau_hip_adduction_l	/forceset/tau_hip_rotation_l	/forceset/tau_knee_flexion_l	/forceset/tau_ankle_angle_l	/forceset/tau_subtalar_angle_l	/forceset/tau_lumbar_extension	lambda_cid13_p0	lambda_cid13_p1	lambda_cid13_p2	lambda_cid13_p3	lambda_cid13_p4	lambda_cid13_p5	lambda_cid14_p0	/jointset/ground_pelvis/pelvis_tilt/accel	/jointset/ground_pelvis/pelvis_tx/accel	/jointset/ground_pelvis/pelvis_ty/accel	/jointset/hip_l/hip_flexion_l/accel	/jointset/hip_l/hip_adduction_l/accel	/jointset/hip_l/hip_rotation_l/accel	/jointset/back/lumbar_extension/accel	/jointset/patellofemoral_l/patellar_flexion_l/accel	/jointset/knee_l/knee_flexion_l/accel	/jointset/knee_l/knee_adduction_l/accel	/jointset/knee_l/knee_rotation_l/accel	/jointset/ankle_l/ankle_angle_l/accel	/jointset/subtalar_l/subtalar_angle_l/accel	gamma_cid13_p0	gamma_cid13_p1	gamma_cid13_p2	gamma_cid13_p3	gamma_cid13_p4	gamma_cid13_p5	gamma_cid14_p0
0.5	-0.2336773292165473	-0.08594981662365453	0.8135082840502065	1.014238763453165	-0.3075948265263469	-0.1612137329811783	-0.9598119773698306	0.7114549772364618	0.711454977236472	-0.08328614004429465	-0.174167053544814	-0.01733808550709713	-0.01924895673426202	-0.7607595596108671	-0.02340500043520336	-0.1707095456776221	1.125252040673994	-0.04537489715587499	0.1385213226628726	0.0002270800286218317	0.3661697802509	0.3661697802509159	-0.03519120278207735	-0.004282515547131688	0.006162441588579304	-0.04597559572299622	-0.4306623058039625	0.04446814564031006	-0.003648787093548725	-0.09889660434097021	0.08116528909981152	0.07642995894442443	0.4414761752412208	-20.57846839212248	-29.99312569590546	4.78743774035541	-6.830483874213072	-754.1366860964329	-78.20221622272899	-17.61175062241915	2.07718349875654	0.559400462910333	0.7505967821439284	-4.97242637691466	-1.059248282646687	0.2338479183168444	0.1131347983032367	-2.379849898349901	-2.379849898350209	-2.968978501808301	-0.3044459271634092	-0.1429048061166208	-1.1285575045488	-1.223317443434135e-07	2.750249335272178e-07	3.023555329969008e-07	8.450568038786793e-08	1.318854960168295e-07	2.529582705331373e-08	-3.879539490370996e-08
0.51	-0.2411852471093101	-0.08615717465056363	0.811838568616144	1.025248272763287	-0.3080963142432557	-0.1598160048706996	-0.9598021038118586	0.7149947375543322	0.7149947375543402	-0.0837781347589031	-0.1742193158807826	-0.01728566335790099	-0.01976050713781794	-0.7411767633948781	-0.01818906852120223	-0.1632342227842468	1.077095274846454	-0.05442051439920512	0.1407582316188404	0.001872153779804601	0.3414545572315119	0.3414545572315001	-0.06222808739370333	-0.005877811498044756	0.004111899140076323	-0.05588830111050909	-0.4342290015113272	0.04752999815188961	-0.003533435250693895	-0.09508937045816625	0.07407455494483225	0.0763973668642952	0.44180776619222	-22.92640304532694	-29.6029440458987	4.76530073059063	-4.111969310932657	-754.3059750211663	-77.25599189405087	-17.49160637699798	1.845896644174479	0.4843331785083398	0.7459331400876503	-4.670500472212127	-0.751966383466615	0.1787147868151149	0.2088719965058411	-2.566510666015092	-2.566510666018981	-2.424027206149173	-0.04321959034652514	-0.2676513421114345	-0.8557739553408917	-9.62726124488698e-08	2.872712462104642e-07	1.451022766013267e-07	5.480357057395094e-08	1.670323361319068e-07	5.085283660957499e-08	-2.497728078383124e-08
0.52	-0.2485079232476883	-0.08631604463375991	0.810243593030446	1.03578957465782	-0.3086732077202545	-0.1584038871901443	-0.9597720438498309	0.7182775152095542	0.7182775152095575	-0.0845110950726963	-0.1742787608085167	-0.01726005110875528	-0.02035781397514668	-0.7237112087327013	-0.0137073916926384	-0.1557615760047628	1.031610557557383	-0.06045604917415525	0.1413992366779445	0.004264360850194082	0.314773247720851	0.3147732477208133	-0.0833843226177091	-0.005719033900608629	0.0008004615758023557	-0.06312688247755718	-0.4377956972186935	0.05059185066347488	-0.003418083407853642	-0.09128213657536595	0.06698382078985252	0.07636477478417196	0.4421393571432166	-25.28623678345181	-29.21236237682702	4.745023892668471	-1.39763014075627	-754.6422567294793	-76.32530479681139	-17.37997434917351	1.653735187994073	0.4125494458229526	0.7500615593656833	-4.438016669220751	-0.4572317889707172	-0.085332861055854	0.262561462144612	-2.77306719660446	-2.773067196604424	-1.792848624284317	0.04636878250641871	-0.3950838292707191	-0.593732700455841	-6.336023743840267e-08	2.319208813957508e-07	-2.384887301745947e-08	3.259809249749884e-08	1.47454174408981e-07	3.979852586085829e-08	-7.237361301543047e-09
0.53	-0.2556595311882754	-0.08643297233572099	0.8087237429312174	1.045884135486774	-0.309293710580107	-0.1569979779086971	-0.9597208813513461	0.7212889317791438	0.7212889317791403	-0.08541863636915226	-0.1743309362650472	-0.01726909091001292	-0.02101076793427767	-0.7062606258669476	-0.009719536173695489	-0.1481683243945503	0.9872291867157696	-0.06297770397397962	0.1392111598710778	0.005429974429492146	0.2877237679216498	0.2877237679216275	-0.09647747162969343	-0.004609427852733228	-0.002338669929333077	-0.06668821110896916	-0.4413842321767756	0.05335503311165846	-0.003251958823977696	-0.08693280511120501	0.06129893294217639	0.07661354897456948	0.4421716797771952	-27.05793478822409	-29.04136639858319	4.753369094938062	-0.2416134748354968	-753.7749143865407	-75.58285958999778	-17.2770677055519	1.843172501187411	0.385699671041859	0.7700023130261282	-4.449068362535802	-0.04961776813036076	-0.3712208953799235	-0.03716335708607753	-2.638833529048462	-2.638833529046122	-0.8205464363793233	0.1592203981633454	-0.2328759979906969	-0.1209954117679797	-2.35005154124812e-08	1.55735030698309e-07	-1.330198728423029e-07	1.863762056010154e-08	1.217268852584713e-07	1.263243278294671e-09	1.262772512117554e-08
0.54	-0.2626261427671467	-0.08651126226927015	0.8072810344183261	1.055532708393127	-0.309919427076485	-0.1556310845562933	-0.9596742076496363	0.7240362645192494	0.7240362645192372	-0.08640770883507851	-0.1743688228846476	-0.01730143166368066	-0.02167606767317961	-0.6867119363883276	-0.005979838010251527	-0.1403332587372793	0.9424129730379921	-0.06149877647948827	0.1335960508690983	0.003366601492455453	0.2619564818236282	0.2619564818236205	-0.09969055651063356	-0.002861266515448038	-0.003859728908696756	-0.06559603843174573	-0.4449727671348616	0.0561182155598462	-0.003085834240112617	-0.08258347364704796	0.05561404509449972	0.07686232316497127	0.4422040024111696	-28.84128441775388	-28.86812119203536	4.761117414593509	0.9203283220335896	-753.0859382192888	-74.85670490511458	-17.18263394050514	2.073356510567248	0.3629179747232724	0.7984243687774019	-4.524985236453709	0.342884669892391	-0.7707393000784157	-0.3832358411223772	-2.516628456368534	-2.516628456368694	0.1831642019244499	0.1740798403883655	-0.07146932411622214	0.3369675612712555	2.404563309862391e-08	5.649715306678424e-08	-1.760511324695919e-07	1.379928307442454e-08	8.919630618808126e-08	-6.767651878001482e-08	3.484406007373205e-08
